<svg xmlns="http://www.w3.org/2000/svg" fill="none" viewBox="0 0 120 120"><path fill="url(#paint0_linear_82_506)" d="M0 0h120v120h-120z"/><path fill="#fff" d="M59.45 97a27 27 0 0 1-10.47-1.85 13 13 0 0 1-6.76-6.55q-2.22-4.7-2.22-13.22v-4.2h12.06v5.19q0 5.18.99 8.03.98 2.85 2.7 3.95 1.73 1 3.94 1a7.2 7.2 0 0 0 5.66-2.36q2.22-2.47 2.22-9.14 0-4.94-1.48-7.41a10.3 10.3 0 0 0-4.67-3.95 91 91 0 0 0-8-3.59 31 31 0 0 1-7.02-4.32 15 15 0 0 1-4.43-6.3q-1.48-3.83-1.48-9.51 0-6.92 1.73-11.25a11.8 11.8 0 0 1 6.15-6.42q4.3-2.1 11.57-2.1 9.35 0 14.28 4.32 4.92 4.2 4.92 12.36v8.52h-11.57v-5.06q0-5.7-1.85-8.16-1.72-2.6-5.66-2.6-4.06 0-5.9 2.48-1.73 2.34-1.73 7.54 0 4.44 1.72 6.91a12 12 0 0 0 4.43 3.71 72 72 0 0 0 5.79 2.47q5.55 2.1 8.98 4.32a13 13 0 0 1 5.05 5.93q1.6 3.72 1.6 10.5 0 7.8-2.58 12.36a14.3 14.3 0 0 1-7.14 6.42q-4.56 1.98-10.83 1.98"/><defs><linearGradient id="paint0_linear_82_506" x1="23.7288" x2="126.942" y1="3.60806e-05" y2="12.7733" gradientUnits="userSpaceOnUse"><stop stop-color="#ED0233"/><stop offset="1" stop-color="#003EB7"/></linearGradient></defs></svg>